{
  "accessors": [
    {
      "bufferView": 2,
      "componentType": 5126,
      "count": 4182,
      "max": [
        0.5623310208320618,
        1.0,
        0.22854100167751312
      ],
      "min": [
        -0.5623310208320618,
        -1.0,
        -0.22854100167751312
      ],
      "type": "VEC3"
    },
    {
      "bufferView": 2,
      "byteOffset": 50184,
      "componentType": 5126,
      "count": 4182,
      "max": [
        1.0,
        0.9999880790710449,
        0.9999775886535645
      ],
      "min": [
        -1.0,
        -0.9998717904090881,
        -0.9999985694885254
      ],
      "type": "VEC3"
    },
    {
      "bufferView": 3,
      "componentType": 5126,
      "count": 4182,
      "max": [
        1.0,
        0.999563992023468,
        0.9999819993972778,
        1.0
      ],
      "min": [
        -1.0,
        -0.999970018863678,
        -0.9999880194664001,
        -1.0
      ],
      "type": "VEC4"
    },
    {
      "bufferView": 1,
      "componentType": 5126,
      "count": 4182,
      "max": [
        0.9961000084877014,
        0.9973999857902527
      ],
      "min": [
        0.002400000113993883,
        0.0034000000450760126
      ],
      "type": "VEC2"
    },
    {
      "bufferView": 0,
      "componentType": 5125,
      "count": 18312,
      "type": "SCALAR"
    }
  ],
  "asset": {
    "extras": {
      "author": "Leonardo Benavides (https://sketchfab.com/pleonardo.benavidesg)",
      "license": "CC-BY-4.0 (http://creativecommons.org/licenses/by/4.0/)",
      "source": "https://sketchfab.com/3d-models/scout-trooper-star-wars-164e66cae1a54368a9aa86743ee844bd",
      "title": "Scout Trooper - Star Wars"
    },
    "generator": "Sketchfab-12.68.0",
    "version": "2.0"
  },
  "bufferViews": [
    {
      "buffer": 0,
      "byteLength": 73248,
      "name": "floatBufferViews",
      "target": 34963
    },
    {
      "buffer": 0,
      "byteLength": 33456,
      "byteOffset": 73248,
      "byteStride": 8,
      "name": "floatBufferViews",
      "target": 34962
    },
    {
      "buffer": 0,
      "byteLength": 100368,
      "byteOffset": 106704,
      "byteStride": 12,
      "name": "floatBufferViews",
      "target": 34962
    },
    {
      "buffer": 0,
      "byteLength": 66912,
      "byteOffset": 207072,
      "byteStride": 16,
      "name": "floatBufferViews",
      "target": 34962
    }
  ],
  "buffers": [
    {
      "byteLength": 273984,
      "uri": "scene.bin"
    }
  ],
  "images": [
    {
      "uri": "textures/ScoutTrooper_baseColor.jpeg"
    },
    {
      "uri": "textures/ScoutTrooper_metallicRoughness.png"
    },
    {
      "uri": "textures/ScoutTrooper_normal.jpeg"
    }
  ],
  "materials": [
    {
      "doubleSided": true,
      "name": "ScoutTrooper",
      "normalTexture": {
        "index": 2
      },
      "occlusionTexture": {
        "index": 1
      },
      "pbrMetallicRoughness": {
        "baseColorTexture": {
          "index": 0
        },
        "metallicRoughnessTexture": {
          "index": 1
        }
      }
    }
  ],
  "meshes": [
    {
      "name": "defaultMaterial",
      "primitives": [
        {
          "attributes": {
            "NORMAL": 1,
            "POSITION": 0,
            "TANGENT": 2,
            "TEXCOORD_0": 3
          },
          "indices": 4,
          "material": 0,
          "mode": 4
        }
      ]
    }
  ],
  "nodes": [
    {
      "children": [
        1
      ],
      "matrix": [
        1.0,
        0.0,
        0.0,
        0.0,
        0.0,
        2.220446049250313e-16,
        -1.0,
        0.0,
        0.0,
        1.0,
        2.220446049250313e-16,
        0.0,
        0.0,
        0.0,
        0.0,
        1.0
      ],
      "name": "Sketchfab_model"
    },
    {
      "children": [
        2
      ],
      "matrix": [
        1.0,
        0.0,
        0.0,
        0.0,
        0.0,
        -4.371139006309477e-08,
        0.999999999999999,
        0.0,
        0.0,
        -0.999999999999999,
        -4.371139006309477e-08,
        0.0,
        0.0,
        0.0,
        0.0,
        1.0
      ],
      "name": "Collada visual scene group"
    },
    {
      "children": [
        3
      ],
      "name": "g"
    },
    {
      "mesh": 0,
      "name": "defaultMaterial"
    }
  ],
  "samplers": [
    {
      "magFilter": 9729,
      "minFilter": 9987,
      "wrapS": 10497,
      "wrapT": 10497
    }
  ],
  "scene": 0,
  "scenes": [
    {
      "name": "Sketchfab_Scene",
      "nodes": [
        0
      ]
    }
  ],
  "textures": [
    {
      "sampler": 0,
      "source": 0
    },
    {
      "sampler": 0,
      "source": 1
    },
    {
      "sampler": 0,
      "source": 2
    }
  ]
}
